<svg width="40" height="55" viewBox="0 0 40 55" fill="none" xmlns="http://www.w3.org/2000/svg">
<path d="M8.01562 26.6084H30.5219L30.6483 54.9998L19.3057 44.2842L8.14201 54.9998L8.01562 26.6084Z" fill="#EF4836"/>
<path d="M19.2656 26.6084L19.3026 44.2889L19.3078 44.2842L30.6504 54.9998L30.5239 26.6084H19.2656Z" fill="#C0392B"/>
<path d="M8.04688 33.54L8.05203 34.6924L9.83323 37.9411L13.1458 37.4961L16.3607 40.3168L19.2901 38.782L19.2878 37.7371L16.8715 39.0029C16.5947 39.1478 16.2571 39.1076 16.0222 38.9015L13.2142 36.4377L10.3953 36.8162C10.0855 36.8579 9.78201 36.7046 9.63168 36.4306L8.04688 33.54Z" fill="#CB4637"/>
<path d="M16.4995 0.000326734C16.2946 0.00639964 16.1009 0.0954352 15.9628 0.246914L14.0464 2.34883L10.3119 2.26644C9.99932 2.25957 9.71481 2.44577 9.59598 2.73486L8.5142 5.36534L4.97668 6.56537C4.68071 6.66575 4.4771 6.93788 4.46415 7.25024L4.34727 10.0922L1.43342 12.4297C1.18971 12.6253 1.09139 12.9507 1.18615 13.2485L2.04839 15.9589L0.109874 19.152C-0.0523755 19.4192 -0.0335837 19.7587 0.157312 20.0062L1.89462 22.2582L1.16507 25.9218C1.104 26.2283 1.23783 26.5409 1.50183 26.7082L3.90475 28.2302L4.47228 31.9224C4.51972 32.2313 4.75244 32.4792 5.05769 32.5461L7.8361 33.1546L9.63208 36.4301C9.78241 36.7041 10.0859 36.8574 10.3957 36.8157L13.2146 36.4372L16.0226 38.901C16.2575 39.107 16.5951 39.1473 16.8719 39.0024L19.3916 37.6824L22.8727 39.037C23.164 39.1504 23.495 39.0728 23.7058 38.8418L25.6219 36.7399L29.3567 36.8223C29.6691 36.8291 29.9535 36.643 30.0723 36.3539L31.1541 33.7234L34.6916 32.5234C34.9876 32.423 35.1912 32.1509 35.2042 31.8385L35.321 28.9965L38.2349 26.659C38.4786 26.4634 38.5769 26.138 38.4822 25.8402L37.6199 23.1299L39.5587 19.9365C39.7208 19.6693 39.7019 19.3299 39.511 19.0825L37.7737 16.8305L38.5033 13.167C38.5643 12.8605 38.4305 12.5479 38.1665 12.3806L35.7636 10.8586L35.1963 7.16636C35.1488 6.85745 34.9161 6.6096 34.6109 6.54269L31.8322 5.93413L30.0362 2.65866C29.886 2.38469 29.5826 2.23126 29.2729 2.27286L26.4537 2.65155L23.6457 0.18779C23.5118 0.0702279 23.3405 0.0038815 23.1623 0.000214837C23.035 -0.00230599 22.9092 0.0272581 22.7964 0.086383L20.277 1.40638L16.7956 0.0515479C16.7013 0.0147667 16.6006 -0.00265243 16.4995 0.000326734Z" fill="#FFB61C"/>
<path d="M19.8331 5.05469C11.8428 5.05469 5.34375 11.5537 5.34375 19.5441C5.34375 27.5344 11.8428 34.0335 19.8331 34.0335C27.8235 34.0335 34.3225 27.5344 34.3225 19.5441C34.3225 11.5537 27.8235 5.05469 19.8331 5.05469Z" fill="#F39C12"/>
<path d="M19.8328 7.07129C26.7337 7.07129 32.3062 12.6439 32.3062 19.5447C32.3062 26.4455 26.7337 32.0182 19.8328 32.0182C12.9319 32.0182 7.35938 26.4456 7.35938 19.5448C7.35938 12.644 12.9319 7.07129 19.8328 7.07129Z" fill="#FCD116"/>
<path d="M19.8352 7.05371C12.9375 7.05383 7.3457 12.6455 7.3457 19.5433C7.34582 26.441 12.9375 32.0327 19.8352 32.0328C26.7329 32.0327 32.3246 26.4411 32.3246 19.5433C32.3246 12.6455 26.7328 7.05383 19.8352 7.05371ZM19.8352 7.75966C26.3432 7.75943 31.6193 13.0352 31.6197 19.5433C31.6199 26.0515 26.344 31.3276 19.8358 31.3278C19.8356 31.3278 19.8354 31.3278 19.8352 31.3278C13.3271 31.3275 8.0513 26.0514 8.05153 19.5433C8.05176 13.0354 13.3273 7.75989 19.8352 7.75966Z" fill="#E9C31A"/>
<path d="M30.5622 35.165L30.0732 36.3543C29.9543 36.6434 29.67 36.8295 29.3575 36.8227L25.6228 36.7403L23.7066 38.8422C23.496 39.0732 23.165 39.1508 22.8736 39.0374L19.3924 37.6828L19.2891 37.737L19.2914 38.7819L19.3224 38.7655L23.3082 40.3166L25.5597 37.8465L29.8355 37.9407L30.5665 36.1631L30.5622 35.165Z" fill="#A63A2E"/>
</svg>
