<svg preserveAspectRatio="xMidYMid meet" data-bbox="0 0 234.097 48.334" viewBox="0 0 234.097 48.334" height="48.334" width="234.097" xmlns="http://www.w3.org/2000/svg" data-type="color" role="presentation" aria-hidden="true">
    <g>
        <path d="M0 21.886C0 12.822 5.907 6.982 15.038 6.982c8.862 0 14.702 5.84 14.702 14.769 0 8.594-5.504 14.768-14.298 14.768-5.37 0-9.198-2.281-11.346-6.04V46.79c0 1.278-.269 1.544-1.543 1.544h-1.01C.336 48.334 0 48.068 0 46.79V21.886zm14.971 10.943c6.713 0 10.405-4.699 10.405-11.078 0-6.377-3.759-11.077-10.405-11.077-6.646 0-10.674 4.7-10.674 11.077-.001 6.379 4.027 11.078 10.674 11.078z" fill="#08AECD" data-color="1"></path>
        <path d="M80.36 28.867c0 2.484.403 3.759 2.216 3.759.47 0 .938-.135 1.207-.269.94-.2 1.21-.2 1.21.672v1.543c0 .607-.336 1.006-1.008 1.209-.939.334-1.544.403-3.088.403-2.887 0-4.767-1.275-4.834-5.372-2.215 3.56-5.974 5.706-11.144 5.706-8.795 0-14.299-6.174-14.299-14.768 0-8.929 5.84-14.769 14.702-14.769 9.13 0 15.037 5.84 15.037 14.903v6.983zM65.39 10.674c-6.646 0-10.405 4.7-10.405 11.077 0 6.379 3.691 11.078 10.405 11.078 6.646 0 10.674-4.699 10.674-11.078-.001-6.377-3.96-11.077-10.674-11.077z" fill="#08AECD" data-color="1"></path>
        <path d="M118.626 8.392V9.8c0 .807-.27 1.075-1.141 1.075-.537 0-1.344-.067-1.88-.067-4.901 0-7.653 3.021-7.653 8.861v14.634c0 1.209-.27 1.543-1.544 1.543h-1.143c-1.207 0-1.543-.334-1.543-1.474V19.67c0-8.727 4.431-12.688 11.883-12.688.536 0 1.275 0 1.88.067.805 0 1.141.402 1.141 1.343z" fill="#08AECD" data-color="1"></path>
        <path d="M137.827 1.543c0-1.275.336-1.543 1.544-1.543h1.008c1.342 0 1.745.269 1.745 1.543v6.109h5.772c1.075 0 1.344.269 1.344 1.344v.737c0 1.008-.269 1.344-1.344 1.344h-5.772v14.836c0 5.438 1.879 6.713 5.035 6.713.939 0 1.544-.135 2.484-.403.536-.065.872.134.872.875v1.409c0 .937-.471 1.14-.872 1.274-.94.334-2.282.403-3.156.403-5.639 0-8.66-2.822-8.66-11.078V1.543z" fill="#08AECD" data-color="1"></path>
        <path d="M191.399 20.542c0-6.176-2.818-9.733-8.258-9.733-5.504 0-8.257 3.557-8.257 9.733v13.762c0 1.209-.269 1.543-1.543 1.543h-1.143c-1.274 0-1.544-.334-1.544-1.543V20.609c0-8.526 4.096-13.626 12.486-13.626 8.392 0 12.486 5.101 12.486 13.626v13.695c0 1.209-.267 1.543-1.543 1.543h-1.141c-1.209 0-1.545-.334-1.545-1.543V20.542z" fill="#08AECD" data-color="1"></path>
        <path d="M234.097 8.392V9.8c0 .807-.269 1.075-1.14 1.075-.538 0-1.344-.067-1.88-.067-4.901 0-7.654 3.021-7.654 8.861v14.634c0 1.209-.269 1.543-1.543 1.543h-1.143c-1.208 0-1.544-.334-1.544-1.474V19.67c0-8.727 4.432-12.688 11.884-12.688.536 0 1.274 0 1.88.067.804 0 1.14.402 1.14 1.343z" fill="#08AECD" data-color="1"></path>
    </g>
</svg>